<svg xmlns="http://www.w3.org/2000/svg" xmlns:xlink="http://www.w3.org/1999/xlink" width="512" zoomAndPan="magnify" viewBox="0 0 384 383.999986" height="512" preserveAspectRatio="xMidYMid meet" version="1.0"><defs><g/><clipPath id="f887075199"><path d="M 33 33 L 351 33 L 351 351 L 33 351 Z M 33 33 " clip-rule="nonzero"/></clipPath><clipPath id="2cec0488be"><path d="M 192 33 C 104.1875 33 33 104.1875 33 192 C 33 279.8125 104.1875 351 192 351 C 279.8125 351 351 279.8125 351 192 C 351 104.1875 279.8125 33 192 33 Z M 192 33 " clip-rule="nonzero"/></clipPath><clipPath id="96511d21c6"><path d="M 57.066406 53.25 L 188 53.25 L 188 330.75 L 57.066406 330.75 Z M 57.066406 53.25 " clip-rule="nonzero"/></clipPath><clipPath id="af31fe9c5c"><path d="M 196 53.25 L 327 53.25 L 327 330.75 L 196 330.75 Z M 196 53.25 " clip-rule="nonzero"/></clipPath><clipPath id="3b9325cd07"><rect x="0" width="96" y="0" height="59"/></clipPath></defs><rect x="-38.4" width="460.8" fill="#ffffff" y="-38.399999" height="460.799983" fill-opacity="1"/><rect x="-38.4" width="460.8" fill="#0a1628" y="-38.399999" height="460.799983" fill-opacity="1"/><g clip-path="url(#f887075199)"><g clip-path="url(#2cec0488be)"><path stroke-linecap="butt" transform="matrix(0.75, 0, 0, 0.75, 33.000005, 32.999997)" fill="none" stroke-linejoin="miter" d="M 211.999997 0.00000348333 C 94.916662 0.00000348333 -0.00000611667 94.916672 -0.00000611667 212.000007 C -0.00000611667 329.083342 94.916662 424.00001 211.999997 424.00001 C 329.083332 424.00001 424 329.083342 424 212.000007 C 424 94.916672 329.083332 0.00000348333 211.999997 0.00000348333 Z M 211.999997 0.00000348333 " stroke="#64748b" stroke-width="8" stroke-opacity="1" stroke-miterlimit="4"/></g></g><path fill="#64748b" d="M 162.667969 204.515625 L 191.976562 221.429688 L 221.320312 204.515625 L 221.320312 173.375 L 191.976562 156.425781 L 162.667969 173.375 Z M 162.667969 204.515625 " fill-opacity="1" fill-rule="evenodd"/><g clip-path="url(#96511d21c6)"><path fill="#64748b" d="M 187.835938 228.644531 L 154.347656 209.3125 L 154.347656 168.578125 L 187.835938 149.210938 L 187.835938 70.292969 L 158.320312 53.273438 L 127.59375 71.015625 L 127.59375 105.710938 C 131.390625 107.265625 134.050781 110.992188 134.050781 115.34375 C 134.050781 121.074219 129.390625 125.734375 123.660156 125.734375 C 117.929688 125.734375 113.269531 121.074219 113.269531 115.34375 C 113.269531 111.167969 115.71875 107.574219 119.273438 105.917969 L 119.273438 75.816406 L 92.140625 91.488281 L 92.140625 129.222656 L 123.484375 147.34375 L 154.347656 129.53125 L 154.347656 96.839844 C 150.863281 95.183594 148.445312 91.625 148.445312 87.484375 C 148.445312 81.753906 153.105469 77.09375 158.835938 77.09375 C 164.566406 77.09375 169.226562 81.753906 169.226562 87.484375 C 169.226562 91.867188 166.5 95.632812 162.667969 97.152344 L 162.667969 134.332031 L 127.59375 154.5625 L 127.59375 191.292969 C 131.253906 192.914062 133.808594 196.574219 133.808594 200.820312 C 133.808594 206.550781 129.183594 211.210938 123.417969 211.210938 C 117.6875 211.210938 113.058594 206.550781 113.058594 200.820312 C 113.058594 196.574219 115.613281 192.914062 119.273438 191.292969 L 119.273438 154.527344 L 88.585938 136.816406 L 57.066406 155.007812 L 57.066406 185.597656 L 87.445312 168.058594 L 87.410156 167.367188 C 87.410156 161.636719 92.070312 156.976562 97.800781 156.976562 C 103.53125 156.976562 108.191406 161.636719 108.191406 167.367188 C 108.191406 173.097656 103.53125 177.757812 97.800781 177.757812 C 95.316406 177.757812 93.039062 176.898438 91.277344 175.445312 L 57.066406 195.191406 L 57.066406 229.714844 L 88.585938 247.910156 L 114.683594 232.855469 L 90.691406 219.011719 C 88.824219 220.738281 86.339844 221.773438 83.613281 221.773438 C 77.882812 221.773438 73.222656 217.113281 73.222656 211.382812 C 73.222656 205.652344 77.882812 200.992188 83.613281 200.992188 C 89.34375 200.992188 93.96875 205.617188 94.003906 211.316406 L 162.667969 250.945312 L 162.667969 294.238281 C 166.464844 295.789062 169.160156 299.519531 169.160156 303.867188 C 169.160156 309.597656 164.5 314.261719 158.769531 314.261719 C 153.035156 314.261719 148.375 309.597656 148.375 303.867188 C 148.375 299.726562 150.828125 296.136719 154.347656 294.480469 L 154.347656 255.746094 L 123.003906 237.65625 L 92.140625 255.503906 L 92.140625 292.0625 L 119.273438 307.734375 L 119.273438 273.039062 C 115.613281 271.453125 113.058594 267.792969 113.058594 263.546875 C 113.058594 257.816406 117.722656 253.15625 123.453125 253.15625 C 129.183594 253.15625 133.84375 257.816406 133.84375 263.546875 C 133.84375 267.792969 131.253906 271.488281 127.59375 273.074219 L 127.59375 312.535156 L 159.078125 330.726562 L 187.835938 314.121094 Z M 187.835938 228.644531 " fill-opacity="1" fill-rule="evenodd"/></g><g clip-path="url(#af31fe9c5c)"><path fill="#00d4ff" d="M 196.15625 228.644531 L 196.15625 314.121094 L 224.878906 330.726562 L 256.394531 312.535156 L 256.394531 273.074219 C 252.703125 271.488281 250.148438 267.792969 250.148438 263.546875 C 250.148438 257.816406 254.773438 253.15625 260.503906 253.15625 C 266.269531 253.15625 270.894531 257.816406 270.894531 263.546875 C 270.894531 267.792969 268.339844 271.453125 264.714844 273.039062 L 264.714844 307.734375 L 291.851562 292.0625 L 291.851562 255.503906 L 260.988281 237.65625 L 229.640625 255.746094 L 229.640625 294.480469 C 233.164062 296.136719 235.578125 299.726562 235.578125 303.867188 C 235.578125 309.597656 230.953125 314.261719 225.1875 314.261719 C 219.457031 314.261719 214.832031 309.597656 214.832031 303.867188 C 214.832031 299.519531 217.523438 295.789062 221.320312 294.238281 L 221.320312 250.945312 L 289.984375 211.316406 C 290.019531 205.617188 294.648438 200.992188 300.34375 200.992188 C 306.109375 200.992188 310.734375 205.652344 310.734375 211.382812 C 310.734375 217.113281 306.109375 221.773438 300.34375 221.773438 C 297.617188 221.773438 295.164062 220.738281 293.300781 219.011719 L 269.308594 232.855469 L 295.371094 247.910156 L 326.925781 229.714844 L 326.925781 195.191406 L 292.714844 175.445312 C 290.917969 176.898438 288.640625 177.757812 286.1875 177.757812 C 280.457031 177.757812 275.796875 173.097656 275.796875 167.367188 C 275.796875 161.636719 280.457031 156.976562 286.1875 156.976562 C 291.917969 156.976562 296.578125 161.636719 296.578125 167.367188 L 296.546875 168.058594 L 326.925781 185.597656 L 326.925781 155.007812 L 295.371094 136.816406 L 264.714844 154.527344 L 264.714844 191.292969 C 268.375 192.914062 270.929688 196.574219 270.929688 200.820312 C 270.929688 206.550781 266.269531 211.210938 260.539062 211.210938 C 254.808594 211.210938 250.148438 206.550781 250.148438 200.820312 C 250.148438 196.574219 252.703125 192.914062 256.394531 191.292969 L 256.394531 154.5625 L 221.320312 134.332031 L 221.320312 97.152344 C 217.488281 95.632812 214.761719 91.867188 214.761719 87.484375 C 214.761719 81.753906 219.421875 77.09375 225.152344 77.09375 C 230.882812 77.09375 235.546875 81.753906 235.546875 87.484375 C 235.546875 91.625 233.128906 95.183594 229.640625 96.839844 L 229.640625 129.53125 L 260.503906 147.34375 L 291.851562 129.222656 L 291.851562 91.488281 L 264.714844 75.816406 L 264.714844 105.917969 C 268.238281 107.574219 270.6875 111.167969 270.6875 115.34375 C 270.6875 121.074219 266.027344 125.734375 260.296875 125.734375 C 254.566406 125.734375 249.90625 121.074219 249.90625 115.34375 C 249.90625 110.992188 252.597656 107.265625 256.394531 105.710938 L 256.394531 71.015625 L 225.636719 53.273438 L 196.15625 70.292969 L 196.15625 149.210938 L 229.640625 168.578125 L 229.640625 209.3125 Z M 196.15625 228.644531 " fill-opacity="1" fill-rule="evenodd"/></g><g transform="matrix(1, 0, 0, 1, 245, 278)"><g clip-path="url(#3b9325cd07)"><g fill="#ffffff" fill-opacity="1"><g transform="translate(0.662473, 46.987455)"><g><path d="M 11.5 0 L 5.375 0 L 5.375 -38.515625 L 48.203125 -38.515625 L 48.203125 -32.421875 L 11.5 -32.421875 L 11.5 -22.3125 L 43.859375 -22.3125 L 43.859375 -16.1875 L 11.5 -16.1875 Z M 11.5 0 "/></g></g></g><g fill="#ffffff" fill-opacity="1"><g transform="translate(52.892646, 46.987455)"><g><path d="M 24.359375 0 L 18.234375 0 L 18.234375 -32.421875 L 0.8125 -32.421875 L 0.8125 -38.515625 L 41.8125 -38.515625 L 41.8125 -32.421875 L 24.359375 -32.421875 Z M 24.359375 0 "/></g></g></g></g></g></svg>