<svg xmlns="http://www.w3.org/2000/svg" width="512" height="512" viewBox="0 0 384 384"><rect width="384" height="384" fill="#0a1628"/><g fill="none" stroke="#64748b" stroke-width="6"><circle cx="192" cy="192" r="119"/></g><path fill="#64748b" d="M162.7 204.5l29.3 16.9 29.3-16.9v-31.1l-29.3-17-29.3 17z"/><path fill="#64748b" d="M187.8 228.6l-33.5-19.3v-40.7l33.5-19.4v-78.9l-29.5-17-30.7 17.7v34.7c3.8 1.6 6.5 5.3 6.5 9.6 0 5.7-4.7 10.4-10.4 10.4s-10.4-4.7-10.4-10.4c0-4.2 2.4-7.8 6-9.4V75.8L92.1 91.5v37.7l31.3 18.1 30.9-17.8v-32.7c-3.5-1.7-5.9-5.2-5.9-9.4 0-5.7 4.7-10.4 10.4-10.4s10.4 4.7 10.4 10.4c0 4.4-2.7 8.1-6.6 9.7v37.2l-35.1 20.2v36.7c3.7 1.6 6.2 5.3 6.2 9.5 0 5.7-4.6 10.4-10.4 10.4-5.7 0-10.4-4.7-10.4-10.4 0-4.2 2.6-7.9 6.2-9.5v-36.8l-30.7-18.3L57.1 155v30.6l30.4-17.5-.1-.7c0-5.7 4.7-10.4 10.4-10.4s10.4 4.7 10.4 10.4-4.7 10.4-10.4 10.4c-2.5 0-4.8-.9-6.5-2.3l-34.2 19.7v34.5l31.5 18.2 26.1-15.1-24-13.8c-1.9 1.7-4.4 2.8-7.1 2.8-5.7 0-10.4-4.7-10.4-10.4s4.7-10.4 10.4-10.4c5.7 0 10.3 4.6 10.4 10.3l68.7 39.6v43.3c3.8 1.6 6.5 5.3 6.5 9.6 0 5.7-4.7 10.4-10.4 10.4s-10.4-4.7-10.4-10.4c0-4.1 2.4-7.7 6-9.4v-38.7l-31.3-18.1-30.9 17.8v36.6l27.1 15.7v-34.7c-3.7-1.6-6.2-5.3-6.2-9.5 0-5.7 4.7-10.4 10.4-10.4s10.4 4.7 10.4 10.4c0 4.2-2.6 7.9-6.2 9.5v39.5l31.5 18.2 28.8-16.6z"/><path fill="#00d4ff" d="M196.2 228.6v85.5l28.7 16.6 31.5-18.2v-39.5c-3.7-1.6-6.2-5.3-6.2-9.5 0-5.7 4.6-10.4 10.4-10.4s10.4 4.7 10.4 10.4c0 4.2-2.6 7.9-6.2 9.5v34.7l27.1-15.7v-36.6l-30.9-17.8-31.3 18.1v38.7c3.5 1.7 5.9 5.2 5.9 9.4 0 5.7-4.6 10.4-10.4 10.4s-10.4-4.7-10.4-10.4c0-4.3 2.7-8.1 6.5-9.6v-43.3l68.7-39.6c0-5.7 4.6-10.3 10.3-10.3 5.8 0 10.4 4.7 10.4 10.4s-4.6 10.4-10.4 10.4c-2.7 0-5.2-1-7.1-2.8l-24 13.8 26.1 15.1 31.6-18.2v-34.5l-34.2-19.7c-1.8 1.4-4.1 2.3-6.5 2.3-5.7 0-10.4-4.7-10.4-10.4s4.7-10.4 10.4-10.4 10.4 4.7 10.4 10.4l-.1.7 30.4 17.5V155l-31.6-18.2-30.7 18.3v36.8c3.7 1.6 6.2 5.3 6.2 9.5 0 5.7-4.7 10.4-10.4 10.4s-10.4-4.7-10.4-10.4c0-4.2 2.6-7.9 6.2-9.5v-36.7l-35.1-20.2v-37.2c-3.8-1.5-6.6-5.3-6.6-9.7 0-5.7 4.7-10.4 10.4-10.4s10.4 4.7 10.4 10.4c0 4.1-2.4 7.6-5.9 9.4v32.7l30.9 17.8 31.3-18.1V91.5l-27.1-15.7v30.1c3.5 1.7 5.9 5.2 5.9 9.4 0 5.7-4.6 10.4-10.4 10.4s-10.4-4.7-10.4-10.4c0-4.4 2.7-8.1 6.5-9.6V71l-30.8-17.7-29.5 17v78.9l33.5 19.4v40.7z"/></svg>