<svg xmlns="http://www.w3.org/2000/svg" xmlns:xlink="http://www.w3.org/1999/xlink" width="600" zoomAndPan="magnify" viewBox="0 0 450 74.999997" height="100" preserveAspectRatio="xMidYMid meet" version="1.0"><defs><g/><clipPath id="0e37ca3ec4"><path d="M 87.492188 0.5 L 102 0.5 L 102 30.367188 L 87.492188 30.367188 Z M 87.492188 0.5 " clip-rule="nonzero"/></clipPath><clipPath id="d5dda40e91"><path d="M 102 0.5 L 116.519531 0.5 L 116.519531 30.367188 L 102 30.367188 Z M 102 0.5 " clip-rule="nonzero"/></clipPath><clipPath id="3cc66e2f2a"><rect x="0" width="205" y="0" height="59"/></clipPath></defs><g transform="matrix(1, 0, 0, 1, 123, 7)"><g clip-path="url(#3cc66e2f2a)"><path fill="#64748b" d="M 98.847656 16.761719 L 101.996094 18.582031 L 105.152344 16.761719 L 105.152344 13.414062 L 101.996094 11.59375 L 98.847656 13.414062 Z M 98.847656 16.761719 " fill-opacity="1" fill-rule="evenodd"/><g clip-path="url(#0e37ca3ec4)"><path fill="#64748b" d="M 101.550781 19.355469 L 97.953125 17.277344 L 97.953125 12.898438 L 101.550781 10.816406 L 101.550781 2.332031 L 98.378906 0.5 L 95.074219 2.410156 L 95.074219 6.140625 C 95.484375 6.304688 95.769531 6.707031 95.769531 7.175781 C 95.769531 7.792969 95.269531 8.292969 94.652344 8.292969 C 94.035156 8.292969 93.535156 7.792969 93.535156 7.175781 C 93.535156 6.726562 93.796875 6.339844 94.179688 6.160156 L 94.179688 2.925781 L 91.261719 4.609375 L 91.261719 8.667969 L 94.632812 10.617188 L 97.953125 8.699219 L 97.953125 5.183594 C 97.578125 5.007812 97.316406 4.625 97.316406 4.179688 C 97.316406 3.5625 97.820312 3.0625 98.433594 3.0625 C 99.050781 3.0625 99.550781 3.5625 99.550781 4.179688 C 99.550781 4.652344 99.257812 5.054688 98.847656 5.21875 L 98.847656 9.214844 L 95.074219 11.390625 L 95.074219 15.339844 C 95.46875 15.515625 95.742188 15.910156 95.742188 16.367188 C 95.742188 16.980469 95.246094 17.484375 94.625 17.484375 C 94.011719 17.484375 93.511719 16.980469 93.511719 16.367188 C 93.511719 15.910156 93.789062 15.515625 94.179688 15.339844 L 94.179688 11.386719 L 90.882812 9.484375 L 87.492188 11.441406 L 87.492188 14.730469 L 90.757812 12.84375 L 90.753906 12.769531 C 90.753906 12.152344 91.257812 11.652344 91.871094 11.652344 C 92.488281 11.652344 92.988281 12.152344 92.988281 12.769531 C 92.988281 13.386719 92.488281 13.886719 91.871094 13.886719 C 91.605469 13.886719 91.359375 13.792969 91.171875 13.636719 L 87.492188 15.761719 L 87.492188 19.472656 L 90.882812 21.429688 L 93.6875 19.808594 L 91.109375 18.320312 C 90.90625 18.507812 90.640625 18.617188 90.347656 18.617188 C 89.730469 18.617188 89.230469 18.117188 89.230469 17.5 C 89.230469 16.886719 89.730469 16.382812 90.347656 16.382812 C 90.960938 16.382812 91.460938 16.882812 91.464844 17.492188 L 98.847656 21.753906 L 98.847656 26.410156 C 99.253906 26.578125 99.542969 26.976562 99.542969 27.445312 C 99.542969 28.0625 99.042969 28.5625 98.425781 28.5625 C 97.8125 28.5625 97.308594 28.0625 97.308594 27.445312 C 97.308594 27 97.574219 26.613281 97.953125 26.4375 L 97.953125 22.269531 L 94.582031 20.324219 L 91.261719 22.246094 L 91.261719 26.175781 L 94.179688 27.859375 L 94.179688 24.128906 C 93.789062 23.960938 93.511719 23.566406 93.511719 23.109375 C 93.511719 22.492188 94.015625 21.992188 94.628906 21.992188 C 95.246094 21.992188 95.746094 22.492188 95.746094 23.109375 C 95.746094 23.566406 95.46875 23.964844 95.074219 24.132812 L 95.074219 28.375 L 98.460938 30.332031 L 101.550781 28.546875 Z M 101.550781 19.355469 " fill-opacity="1" fill-rule="evenodd"/></g><g clip-path="url(#d5dda40e91)"><path fill="#00d4ff" d="M 102.445312 19.355469 L 102.445312 28.546875 L 105.535156 30.332031 L 108.925781 28.375 L 108.925781 24.132812 C 108.527344 23.964844 108.253906 23.566406 108.253906 23.109375 C 108.253906 22.492188 108.75 21.992188 109.367188 21.992188 C 109.984375 21.992188 110.484375 22.492188 110.484375 23.109375 C 110.484375 23.566406 110.207031 23.960938 109.820312 24.128906 L 109.820312 27.859375 L 112.734375 26.175781 L 112.734375 22.246094 L 109.417969 20.324219 L 106.046875 22.269531 L 106.046875 26.4375 C 106.425781 26.613281 106.6875 27 106.6875 27.445312 C 106.6875 28.0625 106.1875 28.5625 105.570312 28.5625 C 104.953125 28.5625 104.457031 28.0625 104.457031 27.445312 C 104.457031 26.976562 104.746094 26.578125 105.152344 26.410156 L 105.152344 21.753906 L 112.535156 17.492188 C 112.539062 16.882812 113.035156 16.382812 113.648438 16.382812 C 114.269531 16.382812 114.765625 16.886719 114.765625 17.5 C 114.765625 18.117188 114.269531 18.617188 113.648438 18.617188 C 113.355469 18.617188 113.09375 18.507812 112.890625 18.320312 L 110.3125 19.808594 L 113.113281 21.429688 L 116.507812 19.472656 L 116.507812 15.761719 L 112.828125 13.636719 C 112.636719 13.792969 112.390625 13.886719 112.128906 13.886719 C 111.511719 13.886719 111.011719 13.386719 111.011719 12.769531 C 111.011719 12.152344 111.511719 11.652344 112.128906 11.652344 C 112.742188 11.652344 113.246094 12.152344 113.246094 12.769531 L 113.242188 12.84375 L 116.507812 14.730469 L 116.507812 11.441406 L 113.113281 9.484375 L 109.820312 11.386719 L 109.820312 15.339844 C 110.210938 15.515625 110.488281 15.910156 110.488281 16.367188 C 110.488281 16.980469 109.984375 17.484375 109.371094 17.484375 C 108.753906 17.484375 108.253906 16.980469 108.253906 16.367188 C 108.253906 15.910156 108.527344 15.515625 108.925781 15.339844 L 108.925781 11.390625 L 105.152344 9.214844 L 105.152344 5.21875 C 104.742188 5.054688 104.449219 4.652344 104.449219 4.179688 C 104.449219 3.5625 104.949219 3.0625 105.566406 3.0625 C 106.179688 3.0625 106.683594 3.5625 106.683594 4.179688 C 106.683594 4.625 106.421875 5.007812 106.046875 5.183594 L 106.046875 8.699219 L 109.367188 10.617188 L 112.734375 8.667969 L 112.734375 4.609375 L 109.820312 2.925781 L 109.820312 6.160156 C 110.199219 6.339844 110.460938 6.726562 110.460938 7.175781 C 110.460938 7.792969 109.960938 8.292969 109.34375 8.292969 C 108.726562 8.292969 108.226562 7.792969 108.226562 7.175781 C 108.226562 6.707031 108.515625 6.304688 108.925781 6.140625 L 108.925781 2.410156 L 105.617188 0.5 L 102.445312 2.332031 L 102.445312 10.816406 L 106.046875 12.898438 L 106.046875 17.277344 Z M 102.445312 19.355469 " fill-opacity="1" fill-rule="evenodd"/></g><g fill="#ffffff" fill-opacity="1"><g transform="translate(0.701908, 54.008674)"><g><path d="M 4.734375 0 L 2.21875 0 L 2.21875 -15.859375 L 19.859375 -15.859375 L 19.859375 -13.359375 L 4.734375 -13.359375 L 4.734375 -9.1875 L 18.0625 -9.1875 L 18.0625 -6.671875 L 4.734375 -6.671875 Z M 4.734375 0 "/></g></g></g><g fill="#ffffff" fill-opacity="1"><g transform="translate(22.213055, 54.008674)"><g><path d="M 16.734375 0 L 16.734375 -2.515625 L 4.734375 -2.515625 L 4.734375 -15.859375 L 2.21875 -15.859375 L 2.21875 0 Z M 16.734375 0 "/></g></g></g><g fill="#ffffff" fill-opacity="1"><g transform="translate(39.720582, 54.008674)"><g><path d="M 15.515625 0 C 16.910156 0 18.097656 -0.488281 19.078125 -1.46875 C 20.066406 -2.457031 20.5625 -3.648438 20.5625 -5.046875 L 20.5625 -10.828125 C 20.5625 -12.210938 20.066406 -13.394531 19.078125 -14.375 C 18.097656 -15.363281 16.910156 -15.859375 15.515625 -15.859375 L 6.703125 -15.859375 C 5.304688 -15.859375 4.113281 -15.363281 3.125 -14.375 C 2.144531 -13.394531 1.65625 -12.210938 1.65625 -10.828125 L 1.65625 -5.046875 C 1.65625 -3.648438 2.144531 -2.457031 3.125 -1.46875 C 4.113281 -0.488281 5.304688 0 6.703125 0 Z M 15.515625 -2.515625 L 6.703125 -2.515625 C 6.003906 -2.515625 5.410156 -2.757812 4.921875 -3.25 C 4.429688 -3.75 4.1875 -4.347656 4.1875 -5.046875 L 4.1875 -10.828125 C 4.1875 -11.523438 4.429688 -12.117188 4.921875 -12.609375 C 5.410156 -13.109375 6.003906 -13.359375 6.703125 -13.359375 L 15.515625 -13.359375 C 16.210938 -13.359375 16.804688 -13.109375 17.296875 -12.609375 C 17.796875 -12.117188 18.046875 -11.523438 18.046875 -10.828125 L 18.046875 -5.046875 C 18.046875 -4.347656 17.796875 -3.75 17.296875 -3.25 C 16.804688 -2.757812 16.210938 -2.515625 15.515625 -2.515625 Z M 15.515625 -2.515625 "/></g></g></g><g fill="#ffffff" fill-opacity="1"><g transform="translate(60.280491, 54.008674)"><g><path d="M 22.71875 0 L 21.140625 0 L 15.234375 -11.796875 L 9.328125 0 L 7.75 0 L 0.328125 -15.859375 L 3.109375 -15.859375 L 8.578125 -4.15625 L 14.453125 -15.859375 L 16.015625 -15.859375 L 21.875 -4.15625 L 27.375 -15.859375 L 30.15625 -15.859375 Z M 22.71875 0 "/></g></g></g><g fill="#00d4ff" fill-opacity="1"><g transform="translate(90.761434, 54.008674)"><g><path d="M 10.03125 0 L 7.515625 0 L 7.515625 -13.359375 L 0.328125 -13.359375 L 0.328125 -15.859375 L 17.21875 -15.859375 L 17.21875 -13.359375 L 10.03125 -13.359375 Z M 10.03125 0 "/></g></g></g><g fill="#00d4ff" fill-opacity="1"><g transform="translate(108.313202, 54.008674)"><g><path d="M 21.125 0 L 18.59375 0 L 18.59375 -4.46875 C 18.59375 -4.8125 18.46875 -5.109375 18.21875 -5.359375 C 17.976562 -5.609375 17.679688 -5.734375 17.328125 -5.734375 L 4.734375 -5.734375 L 4.734375 0 L 2.21875 0 L 2.21875 -15.859375 L 17.328125 -15.859375 C 18.367188 -15.859375 19.257812 -15.488281 20 -14.75 C 20.75 -14.019531 21.125 -13.132812 21.125 -12.09375 L 21.125 -9.515625 C 21.125 -8.535156 20.796875 -7.691406 20.140625 -6.984375 C 20.796875 -6.273438 21.125 -5.4375 21.125 -4.46875 Z M 17.328125 -8.25 C 17.679688 -8.25 17.976562 -8.375 18.21875 -8.625 C 18.46875 -8.875 18.59375 -9.171875 18.59375 -9.515625 L 18.59375 -12.09375 C 18.59375 -12.4375 18.46875 -12.734375 18.21875 -12.984375 C 17.976562 -13.234375 17.679688 -13.359375 17.328125 -13.359375 L 4.734375 -13.359375 L 4.734375 -8.25 Z M 17.328125 -8.25 "/></g></g></g><g fill="#00d4ff" fill-opacity="1"><g transform="translate(131.085156, 54.008674)"><g><path d="M 23.125 0 L 20.078125 0 L 17.75 -3.4375 L 5.703125 -3.4375 L 3.375 0 L 0.328125 0 L 11.0625 -15.859375 L 12.40625 -15.859375 Z M 16.046875 -5.96875 L 11.71875 -12.359375 L 7.40625 -5.96875 Z M 16.046875 -5.96875 "/></g></g></g><g fill="#00d4ff" fill-opacity="1"><g transform="translate(154.542814, 54.008674)"><g><path d="M 16.078125 0 C 17.472656 0 18.660156 -0.488281 19.640625 -1.46875 C 20.628906 -2.457031 21.125 -3.648438 21.125 -5.046875 L 21.125 -10.828125 C 21.125 -12.210938 20.628906 -13.394531 19.640625 -14.375 C 18.660156 -15.363281 17.472656 -15.859375 16.078125 -15.859375 L 2.21875 -15.859375 L 2.21875 0 Z M 16.078125 -2.515625 L 4.734375 -2.515625 L 4.734375 -13.359375 L 16.078125 -13.359375 C 16.765625 -13.359375 17.351562 -13.109375 17.84375 -12.609375 C 18.34375 -12.117188 18.59375 -11.523438 18.59375 -10.828125 L 18.59375 -5.046875 C 18.59375 -4.347656 18.34375 -3.75 17.84375 -3.25 C 17.351562 -2.757812 16.765625 -2.515625 16.078125 -2.515625 Z M 16.078125 -2.515625 "/></g></g></g><g fill="#00d4ff" fill-opacity="1"><g transform="translate(177.314768, 54.008674)"><g><path d="M 19.859375 0 L 2.21875 0 L 2.21875 -15.859375 L 19.859375 -15.859375 L 19.859375 -13.359375 L 4.734375 -13.359375 L 4.734375 -9.1875 L 18.0625 -9.1875 L 18.0625 -6.671875 L 4.734375 -6.671875 L 4.734375 -2.515625 L 19.859375 -2.515625 Z M 19.859375 0 "/></g></g></g><g fill="#ffffff" fill-opacity="1"><g transform="translate(198.826867, 54.008674)"><g/></g></g></g></g></svg>