<svg xmlns="http://www.w3.org/2000/svg" xmlns:xlink="http://www.w3.org/1999/xlink" width="1000" zoomAndPan="magnify" viewBox="0 0 750 749.999995" height="1000" preserveAspectRatio="xMidYMid meet" version="1.0"><defs><g/><clipPath id="2a4f465eb8"><path d="M 329.644531 281.210938 L 374 281.210938 L 374 374.210938 L 329.644531 374.210938 Z M 329.644531 281.210938 " clip-rule="nonzero"/></clipPath><clipPath id="4be61ecc20"><path d="M 376 281.210938 L 420.394531 281.210938 L 420.394531 374.210938 L 376 374.210938 Z M 376 281.210938 " clip-rule="nonzero"/></clipPath></defs><path fill="#64748b" d="M 365.140625 332.054688 L 374.992188 337.738281 L 384.855469 332.054688 L 384.855469 321.585938 L 374.992188 315.890625 L 365.140625 321.585938 Z M 365.140625 332.054688 " fill-opacity="1" fill-rule="evenodd"/><g clip-path="url(#2a4f465eb8)"><path fill="#64748b" d="M 373.597656 340.164062 L 362.34375 333.667969 L 362.34375 319.972656 L 373.597656 313.464844 L 373.597656 286.941406 L 363.675781 281.21875 L 353.351562 287.183594 L 353.351562 298.84375 C 354.628906 299.367188 355.519531 300.621094 355.519531 302.082031 C 355.519531 304.007812 353.953125 305.574219 352.027344 305.574219 C 350.101562 305.574219 348.535156 304.007812 348.535156 302.082031 C 348.535156 300.679688 349.359375 299.472656 350.554688 298.914062 L 350.554688 288.796875 L 341.433594 294.0625 L 341.433594 306.746094 L 351.96875 312.839844 L 362.34375 306.851562 L 362.34375 295.863281 C 361.171875 295.304688 360.359375 294.109375 360.359375 292.71875 C 360.359375 290.792969 361.925781 289.226562 363.851562 289.226562 C 365.777344 289.226562 367.34375 290.792969 367.34375 292.71875 C 367.34375 294.191406 366.425781 295.457031 365.140625 295.96875 L 365.140625 308.464844 L 353.351562 315.261719 L 353.351562 327.609375 C 354.582031 328.15625 355.4375 329.382812 355.4375 330.8125 C 355.4375 332.738281 353.882812 334.304688 351.945312 334.304688 C 350.019531 334.304688 348.464844 332.738281 348.464844 330.8125 C 348.464844 329.382812 349.324219 328.15625 350.554688 327.609375 L 350.554688 315.25 L 340.238281 309.300781 L 329.644531 315.414062 L 329.644531 325.695312 L 339.855469 319.800781 L 339.84375 319.566406 C 339.84375 317.640625 341.410156 316.074219 343.335938 316.074219 C 345.261719 316.074219 346.828125 317.640625 346.828125 319.566406 C 346.828125 321.496094 345.261719 323.0625 343.335938 323.0625 C 342.5 323.0625 341.734375 322.769531 341.144531 322.285156 L 329.644531 328.921875 L 329.644531 340.523438 L 340.238281 346.640625 L 349.011719 341.578125 L 340.945312 336.925781 C 340.320312 337.507812 339.484375 337.855469 338.566406 337.855469 C 336.640625 337.855469 335.074219 336.289062 335.074219 334.363281 C 335.074219 332.4375 336.640625 330.871094 338.566406 330.871094 C 340.496094 330.871094 342.050781 332.425781 342.0625 334.339844 L 365.140625 347.660156 L 365.140625 362.210938 C 366.417969 362.734375 367.320312 363.984375 367.320312 365.449219 C 367.320312 367.375 365.753906 368.941406 363.828125 368.941406 C 361.902344 368.941406 360.335938 367.375 360.335938 365.449219 C 360.335938 364.054688 361.160156 362.847656 362.34375 362.292969 L 362.34375 349.273438 L 351.808594 343.191406 L 341.433594 349.191406 L 341.433594 361.480469 L 350.554688 366.746094 L 350.554688 355.085938 C 349.324219 354.550781 348.464844 353.324219 348.464844 351.894531 C 348.464844 349.96875 350.03125 348.402344 351.957031 348.402344 C 353.882812 348.402344 355.449219 349.96875 355.449219 351.894531 C 355.449219 353.324219 354.582031 354.5625 353.351562 355.097656 L 353.351562 368.359375 L 363.933594 374.476562 L 373.597656 368.894531 Z M 373.597656 340.164062 " fill-opacity="1" fill-rule="evenodd"/></g><g clip-path="url(#4be61ecc20)"><path fill="#00d4ff" d="M 376.394531 340.164062 L 376.394531 368.894531 L 386.050781 374.476562 L 396.644531 368.359375 L 396.644531 355.097656 C 395.402344 354.5625 394.542969 353.324219 394.542969 351.894531 C 394.542969 349.96875 396.097656 348.402344 398.023438 348.402344 C 399.960938 348.402344 401.515625 349.96875 401.515625 351.894531 C 401.515625 353.324219 400.65625 354.550781 399.4375 355.085938 L 399.4375 366.746094 L 408.558594 361.480469 L 408.558594 349.191406 L 398.1875 343.191406 L 387.648438 349.273438 L 387.648438 362.292969 C 388.832031 362.847656 389.644531 364.054688 389.644531 365.449219 C 389.644531 367.375 388.089844 368.941406 386.152344 368.941406 C 384.226562 368.941406 382.671875 367.375 382.671875 365.449219 C 382.671875 363.984375 383.578125 362.734375 384.855469 362.210938 L 384.855469 347.660156 L 407.933594 334.339844 C 407.945312 332.425781 409.5 330.871094 411.414062 330.871094 C 413.351562 330.871094 414.90625 332.4375 414.90625 334.363281 C 414.90625 336.289062 413.351562 337.855469 411.414062 337.855469 C 410.496094 337.855469 409.671875 337.507812 409.046875 336.925781 L 400.980469 341.578125 L 409.742188 346.640625 L 420.347656 340.523438 L 420.347656 328.921875 L 408.847656 322.285156 C 408.246094 322.769531 407.480469 323.0625 406.65625 323.0625 C 404.730469 323.0625 403.164062 321.496094 403.164062 319.566406 C 403.164062 317.640625 404.730469 316.074219 406.65625 316.074219 C 408.582031 316.074219 410.148438 317.640625 410.148438 319.566406 L 410.136719 319.800781 L 420.347656 325.695312 L 420.347656 315.414062 L 409.742188 309.300781 L 399.4375 315.25 L 399.4375 327.609375 C 400.667969 328.15625 401.527344 329.382812 401.527344 330.8125 C 401.527344 332.738281 399.960938 334.304688 398.035156 334.304688 C 396.109375 334.304688 394.542969 332.738281 394.542969 330.8125 C 394.542969 329.382812 395.402344 328.15625 396.644531 327.609375 L 396.644531 315.261719 L 384.855469 308.464844 L 384.855469 295.96875 C 383.566406 295.457031 382.648438 294.191406 382.648438 292.71875 C 382.648438 290.792969 384.214844 289.226562 386.140625 289.226562 C 388.066406 289.226562 389.632812 290.792969 389.632812 292.71875 C 389.632812 294.109375 388.820312 295.304688 387.648438 295.863281 L 387.648438 306.851562 L 398.023438 312.839844 L 408.558594 306.746094 L 408.558594 294.0625 L 399.4375 288.796875 L 399.4375 298.914062 C 400.621094 299.472656 401.445312 300.679688 401.445312 302.082031 C 401.445312 304.007812 399.878906 305.574219 397.953125 305.574219 C 396.027344 305.574219 394.460938 304.007812 394.460938 302.082031 C 394.460938 300.621094 395.367188 299.367188 396.644531 298.84375 L 396.644531 287.183594 L 386.304688 281.21875 L 376.394531 286.941406 L 376.394531 313.464844 L 387.648438 319.972656 L 387.648438 333.667969 Z M 376.394531 340.164062 " fill-opacity="1" fill-rule="evenodd"/></g><g fill="#ffffff" fill-opacity="1"><g transform="translate(58.883155, 448.11914)"><g><path d="M 14.796875 0 L 6.921875 0 L 6.921875 -49.578125 L 62.0625 -49.578125 L 62.0625 -41.734375 L 14.796875 -41.734375 L 14.796875 -28.734375 L 56.46875 -28.734375 L 56.46875 -20.84375 L 14.796875 -20.84375 Z M 14.796875 0 "/></g></g></g><g fill="#ffffff" fill-opacity="1"><g transform="translate(127.259895, 448.11914)"><g><path d="M 52.3125 0 L 52.3125 -7.890625 L 14.796875 -7.890625 L 14.796875 -49.578125 L 6.921875 -49.578125 L 6.921875 0 Z M 52.3125 0 "/></g></g></g><g fill="#ffffff" fill-opacity="1"><g transform="translate(183.121354, 448.11914)"><g><path d="M 48.515625 0 C 52.867188 0 56.582031 -1.535156 59.65625 -4.609375 C 62.738281 -7.691406 64.28125 -11.410156 64.28125 -15.765625 L 64.28125 -33.84375 C 64.28125 -38.175781 62.738281 -41.878906 59.65625 -44.953125 C 56.582031 -48.035156 52.867188 -49.578125 48.515625 -49.578125 L 20.953125 -49.578125 C 16.597656 -49.578125 12.878906 -48.035156 9.796875 -44.953125 C 6.722656 -41.878906 5.1875 -38.175781 5.1875 -33.84375 L 5.1875 -15.765625 C 5.1875 -11.410156 6.722656 -7.691406 9.796875 -4.609375 C 12.878906 -1.535156 16.597656 0 20.953125 0 Z M 48.515625 -7.890625 L 20.953125 -7.890625 C 18.765625 -7.890625 16.898438 -8.65625 15.359375 -10.1875 C 13.828125 -11.71875 13.0625 -13.578125 13.0625 -15.765625 L 13.0625 -33.84375 C 13.0625 -36.007812 13.828125 -37.863281 15.359375 -39.40625 C 16.898438 -40.957031 18.765625 -41.734375 20.953125 -41.734375 L 48.515625 -41.734375 C 50.679688 -41.734375 52.535156 -40.957031 54.078125 -39.40625 C 55.617188 -37.863281 56.390625 -36.007812 56.390625 -33.84375 L 56.390625 -15.765625 C 56.390625 -13.578125 55.617188 -11.71875 54.078125 -10.1875 C 52.535156 -8.65625 50.679688 -7.890625 48.515625 -7.890625 Z M 48.515625 -7.890625 "/></g></g></g><g fill="#ffffff" fill-opacity="1"><g transform="translate(248.524095, 448.11914)"><g><path d="M 71.015625 0 L 66.078125 0 L 47.609375 -36.859375 L 29.140625 0 L 24.234375 0 L 1.03125 -49.578125 L 9.71875 -49.578125 L 26.828125 -12.96875 L 45.1875 -49.578125 L 50.0625 -49.578125 L 68.390625 -12.96875 L 85.546875 -49.578125 L 94.25 -49.578125 Z M 71.015625 0 "/></g></g></g><g fill="#00d4ff" fill-opacity="1"><g transform="translate(344.949551, 448.11914)"><g><path d="M 31.359375 0 L 23.484375 0 L 23.484375 -41.734375 L 1.03125 -41.734375 L 1.03125 -49.578125 L 53.828125 -49.578125 L 53.828125 -41.734375 L 31.359375 -41.734375 Z M 31.359375 0 "/></g></g></g><g fill="#00d4ff" fill-opacity="1"><g transform="translate(400.9493, 448.11914)"><g><path d="M 66 0 L 58.125 0 L 58.125 -13.96875 C 58.125 -15.050781 57.738281 -15.976562 56.96875 -16.75 C 56.195312 -17.519531 55.269531 -17.90625 54.1875 -17.90625 L 14.796875 -17.90625 L 14.796875 0 L 6.921875 0 L 6.921875 -49.578125 L 54.1875 -49.578125 C 57.4375 -49.578125 60.21875 -48.425781 62.53125 -46.125 C 64.84375 -43.820312 66 -41.046875 66 -37.796875 L 66 -29.734375 C 66 -26.691406 64.988281 -24.066406 62.96875 -21.859375 C 64.988281 -19.617188 66 -16.988281 66 -13.96875 Z M 54.1875 -25.796875 C 55.269531 -25.796875 56.195312 -26.179688 56.96875 -26.953125 C 57.738281 -27.722656 58.125 -28.648438 58.125 -29.734375 L 58.125 -37.796875 C 58.125 -38.878906 57.738281 -39.804688 56.96875 -40.578125 C 56.195312 -41.347656 55.269531 -41.734375 54.1875 -41.734375 L 14.796875 -41.734375 L 14.796875 -25.796875 Z M 54.1875 -25.796875 "/></g></g></g><g fill="#00d4ff" fill-opacity="1"><g transform="translate(473.267316, 448.11914)"><g><path d="M 72.296875 0 L 62.75 0 L 55.5 -10.75 L 17.84375 -10.75 L 10.546875 0 L 1.03125 0 L 34.578125 -49.578125 L 38.765625 -49.578125 Z M 50.171875 -18.640625 L 36.65625 -38.625 L 23.125 -18.640625 Z M 50.171875 -18.640625 "/></g></g></g><g fill="#00d4ff" fill-opacity="1"><g transform="translate(547.728822, 448.11914)"><g><path d="M 50.234375 0 C 54.597656 0 58.316406 -1.535156 61.390625 -4.609375 C 64.460938 -7.691406 66 -11.410156 66 -15.765625 L 66 -33.84375 C 66 -38.175781 64.460938 -41.878906 61.390625 -44.953125 C 58.316406 -48.035156 54.597656 -49.578125 50.234375 -49.578125 L 6.921875 -49.578125 L 6.921875 0 Z M 50.234375 -7.890625 L 14.796875 -7.890625 L 14.796875 -41.734375 L 50.234375 -41.734375 C 52.398438 -41.734375 54.253906 -40.957031 55.796875 -39.40625 C 57.347656 -37.863281 58.125 -36.007812 58.125 -33.84375 L 58.125 -15.765625 C 58.125 -13.578125 57.347656 -11.71875 55.796875 -10.1875 C 54.253906 -8.65625 52.398438 -7.890625 50.234375 -7.890625 Z M 50.234375 -7.890625 "/></g></g></g><g fill="#00d4ff" fill-opacity="1"><g transform="translate(620.04685, 448.11914)"><g><path d="M 62.0625 0 L 6.921875 0 L 6.921875 -49.578125 L 62.0625 -49.578125 L 62.0625 -41.734375 L 14.796875 -41.734375 L 14.796875 -28.734375 L 56.46875 -28.734375 L 56.46875 -20.84375 L 14.796875 -20.84375 L 14.796875 -7.890625 L 62.0625 -7.890625 Z M 62.0625 0 "/></g></g></g><g fill="#ffffff" fill-opacity="1"><g transform="translate(688.426097, 448.11914)"><g/></g></g></svg>