<svg xmlns="http://www.w3.org/2000/svg" xmlns:xlink="http://www.w3.org/1999/xlink" width="1000" zoomAndPan="magnify" viewBox="0 0 750 749.999995" height="1000" preserveAspectRatio="xMidYMid meet" version="1.0"><defs><g/><clipPath id="9c8b03f596"><path d="M 67.351562 337.761719 L 102 337.761719 L 102 409.011719 L 67.351562 409.011719 Z M 67.351562 337.761719 " clip-rule="nonzero"/></clipPath><clipPath id="555b8c1986"><path d="M 103 337.761719 L 137 337.761719 L 137 409.011719 L 103 409.011719 Z M 103 337.761719 " clip-rule="nonzero"/></clipPath><clipPath id="609244dac4"><rect x="0" width="538" y="0" height="63"/></clipPath></defs><path fill="#64748b" d="M 94.554688 376.726562 L 102.105469 381.085938 L 109.664062 376.726562 L 109.664062 368.707031 L 102.105469 364.339844 L 94.554688 368.707031 Z M 94.554688 376.726562 " fill-opacity="1" fill-rule="evenodd"/><g clip-path="url(#9c8b03f596)"><path fill="#64748b" d="M 101.039062 382.945312 L 92.410156 377.964844 L 92.410156 367.46875 L 101.039062 362.480469 L 101.039062 342.152344 L 93.433594 337.769531 L 85.519531 342.339844 L 85.519531 351.277344 C 86.496094 351.675781 87.183594 352.636719 87.183594 353.757812 C 87.183594 355.234375 85.980469 356.433594 84.503906 356.433594 C 83.027344 356.433594 81.828125 355.234375 81.828125 353.757812 C 81.828125 352.683594 82.460938 351.757812 83.375 351.328125 L 83.375 343.574219 L 76.386719 347.613281 L 76.386719 357.332031 L 84.460938 362 L 92.410156 357.414062 L 92.410156 348.992188 C 91.511719 348.5625 90.890625 347.648438 90.890625 346.582031 C 90.890625 345.105469 92.089844 343.90625 93.566406 343.90625 C 95.042969 343.90625 96.242188 345.105469 96.242188 346.582031 C 96.242188 347.710938 95.542969 348.679688 94.554688 349.070312 L 94.554688 358.648438 L 85.519531 363.859375 L 85.519531 373.320312 C 86.460938 373.738281 87.121094 374.683594 87.121094 375.777344 C 87.121094 377.253906 85.929688 378.453125 84.441406 378.453125 C 82.96875 378.453125 81.773438 377.253906 81.773438 375.777344 C 81.773438 374.683594 82.433594 373.738281 83.375 373.320312 L 83.375 363.851562 L 75.46875 359.289062 L 67.351562 363.976562 L 67.351562 371.855469 L 75.175781 367.335938 L 75.167969 367.160156 C 75.167969 365.683594 76.367188 364.484375 77.84375 364.484375 C 79.320312 364.484375 80.519531 365.683594 80.519531 367.160156 C 80.519531 368.636719 79.320312 369.835938 77.84375 369.835938 C 77.203125 369.835938 76.617188 369.613281 76.164062 369.242188 L 67.351562 374.328125 L 67.351562 383.21875 L 75.46875 387.90625 L 82.191406 384.027344 L 76.011719 380.464844 C 75.53125 380.90625 74.890625 381.175781 74.191406 381.175781 C 72.714844 381.175781 71.511719 379.972656 71.511719 378.496094 C 71.511719 377.023438 72.714844 375.820312 74.191406 375.820312 C 75.664062 375.820312 76.855469 377.011719 76.867188 378.480469 L 94.554688 388.6875 L 94.554688 399.839844 C 95.53125 400.242188 96.226562 401.203125 96.226562 402.320312 C 96.226562 403.796875 95.027344 405 93.550781 405 C 92.074219 405 90.871094 403.796875 90.871094 402.320312 C 90.871094 401.253906 91.503906 400.328125 92.410156 399.902344 L 92.410156 389.925781 L 84.335938 385.265625 L 76.386719 389.863281 L 76.386719 399.28125 L 83.375 403.316406 L 83.375 394.378906 C 82.433594 393.972656 81.773438 393.027344 81.773438 391.933594 C 81.773438 390.457031 82.976562 389.257812 84.453125 389.257812 C 85.929688 389.257812 87.128906 390.457031 87.128906 391.933594 C 87.128906 393.027344 86.460938 393.980469 85.519531 394.390625 L 85.519531 404.554688 L 93.628906 409.242188 L 101.039062 404.964844 Z M 101.039062 382.945312 " fill-opacity="1" fill-rule="evenodd"/></g><g clip-path="url(#555b8c1986)"><path fill="#00d4ff" d="M 103.179688 382.945312 L 103.179688 404.964844 L 110.578125 409.242188 L 118.699219 404.554688 L 118.699219 394.390625 C 117.746094 393.980469 117.089844 393.027344 117.089844 391.933594 C 117.089844 390.457031 118.28125 389.257812 119.757812 389.257812 C 121.242188 389.257812 122.433594 390.457031 122.433594 391.933594 C 122.433594 393.027344 121.773438 393.972656 120.839844 394.378906 L 120.839844 403.316406 L 127.832031 399.28125 L 127.832031 389.863281 L 119.882812 385.265625 L 111.804688 389.925781 L 111.804688 399.902344 C 112.714844 400.328125 113.335938 401.253906 113.335938 402.320312 C 113.335938 403.796875 112.144531 405 110.660156 405 C 109.183594 405 107.992188 403.796875 107.992188 402.320312 C 107.992188 401.203125 108.683594 400.242188 109.664062 399.839844 L 109.664062 388.6875 L 127.351562 378.480469 C 127.359375 377.011719 128.550781 375.820312 130.019531 375.820312 C 131.503906 375.820312 132.695312 377.023438 132.695312 378.496094 C 132.695312 379.972656 131.503906 381.175781 130.019531 381.175781 C 129.316406 381.175781 128.683594 380.90625 128.203125 380.464844 L 122.023438 384.027344 L 128.738281 387.90625 L 136.867188 383.21875 L 136.867188 374.328125 L 128.054688 369.242188 C 127.589844 369.613281 127.003906 369.835938 126.371094 369.835938 C 124.898438 369.835938 123.695312 368.636719 123.695312 367.160156 C 123.695312 365.683594 124.898438 364.484375 126.371094 364.484375 C 127.847656 364.484375 129.050781 365.683594 129.050781 367.160156 L 129.039062 367.335938 L 136.867188 371.855469 L 136.867188 363.976562 L 128.738281 359.289062 L 120.839844 363.851562 L 120.839844 373.320312 C 121.785156 373.738281 122.441406 374.683594 122.441406 375.777344 C 122.441406 377.253906 121.242188 378.453125 119.765625 378.453125 C 118.289062 378.453125 117.089844 377.253906 117.089844 375.777344 C 117.089844 374.683594 117.746094 373.738281 118.699219 373.320312 L 118.699219 363.859375 L 109.664062 358.648438 L 109.664062 349.070312 C 108.675781 348.679688 107.972656 347.710938 107.972656 346.582031 C 107.972656 345.105469 109.175781 343.90625 110.648438 343.90625 C 112.125 343.90625 113.328125 345.105469 113.328125 346.582031 C 113.328125 347.648438 112.703125 348.5625 111.804688 348.992188 L 111.804688 357.414062 L 119.757812 362 L 127.832031 357.332031 L 127.832031 347.613281 L 120.839844 343.574219 L 120.839844 351.328125 C 121.75 351.757812 122.378906 352.683594 122.378906 353.757812 C 122.378906 355.234375 121.179688 356.433594 119.703125 356.433594 C 118.226562 356.433594 117.027344 355.234375 117.027344 353.757812 C 117.027344 352.636719 117.71875 351.675781 118.699219 351.277344 L 118.699219 342.339844 L 110.773438 337.769531 L 103.179688 342.152344 L 103.179688 362.480469 L 111.804688 367.46875 L 111.804688 377.964844 Z M 103.179688 382.945312 " fill-opacity="1" fill-rule="evenodd"/></g><g transform="matrix(1, 0, 0, 1, 148, 345)"><g clip-path="url(#609244dac4)"><g fill="#ffffff" fill-opacity="1"><g transform="translate(0.902212, 49.955596)"><g><path d="M 12.46875 0 L 5.828125 0 L 5.828125 -41.78125 L 52.296875 -41.78125 L 52.296875 -35.171875 L 12.46875 -35.171875 L 12.46875 -24.21875 L 47.578125 -24.21875 L 47.578125 -17.5625 L 12.46875 -17.5625 Z M 12.46875 0 "/></g></g></g><g fill="#ffffff" fill-opacity="1"><g transform="translate(57.573009, 49.955596)"><g><path d="M 44.078125 0 L 44.078125 -6.640625 L 12.46875 -6.640625 L 12.46875 -41.78125 L 5.828125 -41.78125 L 5.828125 0 Z M 44.078125 0 "/></g></g></g><g fill="#ffffff" fill-opacity="1"><g transform="translate(103.696335, 49.955596)"><g><path d="M 40.875 0 C 44.550781 0 47.6875 -1.296875 50.28125 -3.890625 C 52.875 -6.484375 54.171875 -9.613281 54.171875 -13.28125 L 54.171875 -28.53125 C 54.171875 -32.175781 52.875 -35.296875 50.28125 -37.890625 C 47.6875 -40.484375 44.550781 -41.78125 40.875 -41.78125 L 17.65625 -41.78125 C 13.988281 -41.78125 10.859375 -40.484375 8.265625 -37.890625 C 5.671875 -35.296875 4.375 -32.175781 4.375 -28.53125 L 4.375 -13.28125 C 4.375 -9.613281 5.671875 -6.484375 8.265625 -3.890625 C 10.859375 -1.296875 13.988281 0 17.65625 0 Z M 40.875 -6.640625 L 17.65625 -6.640625 C 15.8125 -6.640625 14.242188 -7.285156 12.953125 -8.578125 C 11.660156 -9.867188 11.015625 -11.4375 11.015625 -13.28125 L 11.015625 -28.53125 C 11.015625 -30.351562 11.660156 -31.914062 12.953125 -33.21875 C 14.242188 -34.519531 15.8125 -35.171875 17.65625 -35.171875 L 40.875 -35.171875 C 42.707031 -35.171875 44.269531 -34.519531 45.5625 -33.21875 C 46.863281 -31.914062 47.515625 -30.351562 47.515625 -28.53125 L 47.515625 -13.28125 C 47.515625 -11.4375 46.863281 -9.867188 45.5625 -8.578125 C 44.269531 -7.285156 42.707031 -6.640625 40.875 -6.640625 Z M 40.875 -6.640625 "/></g></g></g><g fill="#ffffff" fill-opacity="1"><g transform="translate(157.861242, 49.955596)"><g><path d="M 59.84375 0 L 55.6875 0 L 40.125 -31.0625 L 24.5625 0 L 20.421875 0 L 0.875 -41.78125 L 8.1875 -41.78125 L 22.609375 -10.921875 L 38.078125 -41.78125 L 42.1875 -41.78125 L 57.625 -10.921875 L 72.078125 -41.78125 L 79.421875 -41.78125 Z M 59.84375 0 "/></g></g></g><g fill="#00d4ff" fill-opacity="1"><g transform="translate(238.165874, 49.955596)"><g><path d="M 26.421875 0 L 19.78125 0 L 19.78125 -35.171875 L 0.875 -35.171875 L 0.875 -41.78125 L 45.359375 -41.78125 L 45.359375 -35.171875 L 26.421875 -35.171875 Z M 26.421875 0 "/></g></g></g><g fill="#00d4ff" fill-opacity="1"><g transform="translate(284.405748, 49.955596)"><g><path d="M 55.625 0 L 48.984375 0 L 48.984375 -11.765625 C 48.984375 -12.679688 48.65625 -13.460938 48 -14.109375 C 47.351562 -14.765625 46.570312 -15.09375 45.65625 -15.09375 L 12.46875 -15.09375 L 12.46875 0 L 5.828125 0 L 5.828125 -41.78125 L 45.65625 -41.78125 C 48.394531 -41.78125 50.738281 -40.804688 52.6875 -38.859375 C 54.644531 -36.921875 55.625 -34.582031 55.625 -31.84375 L 55.625 -25.0625 C 55.625 -22.5 54.769531 -20.285156 53.0625 -18.421875 C 54.769531 -16.535156 55.625 -14.316406 55.625 -11.765625 Z M 45.65625 -21.734375 C 46.570312 -21.734375 47.351562 -22.054688 48 -22.703125 C 48.65625 -23.359375 48.984375 -24.144531 48.984375 -25.0625 L 48.984375 -31.84375 C 48.984375 -32.757812 48.65625 -33.539062 48 -34.1875 C 47.351562 -34.84375 46.570312 -35.171875 45.65625 -35.171875 L 12.46875 -35.171875 L 12.46875 -21.734375 Z M 45.65625 -21.734375 "/></g></g></g><g fill="#00d4ff" fill-opacity="1"><g transform="translate(344.398123, 49.955596)"><g><path d="M 60.921875 0 L 52.890625 0 L 46.765625 -9.0625 L 15.03125 -9.0625 L 8.890625 0 L 0.875 0 L 29.140625 -41.78125 L 32.65625 -41.78125 Z M 42.28125 -15.703125 L 30.890625 -32.546875 L 19.5 -15.703125 Z M 42.28125 -15.703125 "/></g></g></g><g fill="#00d4ff" fill-opacity="1"><g transform="translate(406.196971, 49.955596)"><g><path d="M 42.328125 0 C 46.003906 0 49.140625 -1.296875 51.734375 -3.890625 C 54.328125 -6.484375 55.625 -9.613281 55.625 -13.28125 L 55.625 -28.53125 C 55.625 -32.175781 54.328125 -35.296875 51.734375 -37.890625 C 49.140625 -40.484375 46.003906 -41.78125 42.328125 -41.78125 L 5.828125 -41.78125 L 5.828125 0 Z M 42.328125 -6.640625 L 12.46875 -6.640625 L 12.46875 -35.171875 L 42.328125 -35.171875 C 44.160156 -35.171875 45.726562 -34.519531 47.03125 -33.21875 C 48.332031 -31.914062 48.984375 -30.351562 48.984375 -28.53125 L 48.984375 -13.28125 C 48.984375 -11.4375 48.332031 -9.867188 47.03125 -8.578125 C 45.726562 -7.285156 44.160156 -6.640625 42.328125 -6.640625 Z M 42.328125 -6.640625 "/></g></g></g><g fill="#00d4ff" fill-opacity="1"><g transform="translate(466.189346, 49.955596)"><g><path d="M 52.296875 0 L 5.828125 0 L 5.828125 -41.78125 L 52.296875 -41.78125 L 52.296875 -35.171875 L 12.46875 -35.171875 L 12.46875 -24.21875 L 47.578125 -24.21875 L 47.578125 -17.5625 L 12.46875 -17.5625 L 12.46875 -6.640625 L 52.296875 -6.640625 Z M 52.296875 0 "/></g></g></g><g fill="#ffffff" fill-opacity="1"><g transform="translate(522.861173, 49.955596)"><g/></g></g></g></g></svg>