<svg xmlns="http://www.w3.org/2000/svg" viewBox="-110 -110 220 220" width="720" height="720">
<defs><linearGradient id="g-trade" x1="0" y1="100" x2="0" y2="-100" gradientUnits="userSpaceOnUse">
<stop offset="0%" stop-color="#0A5C3A"/><stop offset="50%" stop-color="#00955A"/><stop offset="100%" stop-color="#1FC56F"/>
</linearGradient></defs>
<path d="M -34.644,-24.998 L -23.290,-31.553 L -23.290,-52.158 L -24.324,-52.769 L -25.854,-54.598 L -26.429,-56.912 L -25.931,-59.245 L -24.462,-61.123 L -22.318,-62.168 L -19.933,-62.168 L -17.789,-61.123 L -16.320,-59.245 L -15.822,-56.912 L -16.397,-54.598 L -17.927,-52.769 L -18.960,-52.158 L -18.960,-34.053 L -2.165,-43.750 L -2.165,-63.750 L -23.816,-76.250 L -38.389,-67.836 L -38.389,-49.843 L -37.356,-49.232 L -35.825,-47.403 L -35.251,-45.088 L -35.748,-42.755 L -37.218,-40.876 L -39.362,-39.831 L -41.747,-39.831 L -43.891,-40.876 L -45.361,-42.755 L -45.858,-45.088 L -45.284,-47.403 L -43.753,-49.232 L -42.720,-49.843 L -42.720,-65.336 L -54.561,-58.499 L -54.566,-36.504 L -39.002,-27.482 L -34.644,-24.998 Z" fill="url(#g-trade)" fill-rule="nonzero" stroke="none"/>
<path d="M 2.165,-63.750 L 2.165,-43.751 L 18.833,-34.132 L 34.835,-24.919 L 55.148,-36.646 L 55.141,-58.164 L 23.797,-76.261 L 2.165,-63.750 Z" fill="url(#g-trade)" fill-rule="nonzero" stroke="none"/>
<path d="M 39.165,4.751 L 39.060,-4.801 L 38.977,-22.534 L 54.454,-13.623 L 54.916,-11.284 L 56.356,-9.384 L 58.483,-8.306 L 60.866,-8.269 L 63.026,-9.279 L 64.524,-11.133 L 65.060,-13.456 L 64.524,-15.779 L 63.024,-17.633 L 60.864,-18.642 L 58.481,-18.604 L 56.355,-17.525 L 43.282,-25.011 L 54.560,-31.500 L 77.942,-18.008 L 77.942,18.027 L 58.895,29.003 L 43.301,19.865 L 39.165,17.391 L 39.165,4.751 Z" fill="url(#g-trade)" fill-rule="nonzero" stroke="none"/>
<path d="M 2.165,25.660 L 2.165,38.750 L 34.835,19.888 L 34.835,4.924 L 34.641,-4.842 L 34.641,-20.000 L 2.165,-38.750 L 2.165,-25.660 L 23.305,-13.455 L 23.305,13.455 L 2.165,25.660 Z" fill="url(#g-trade)" fill-rule="nonzero" stroke="none"/>
<path d="M -2.165,38.751 L -2.165,25.660 L -23.305,13.455 L -23.305,-13.455 L -2.165,-25.660 L -2.165,-38.750 L -34.641,-20.000 L -34.641,-4.842 L -34.641,4.842 L -34.641,20.023 L -2.165,38.751 Z" fill="url(#g-trade)" fill-rule="nonzero" stroke="none"/>
<path d="M -77.942,18.016 L -58.892,29.001 L -40.639,18.486 L -40.875,18.597 L -48.582,14.123 L -50.768,15.203 L -53.205,15.191 L -55.380,14.091 L -56.833,12.134 L -57.258,9.734 L -56.564,7.398 L -54.899,5.618 L -52.614,4.770 L -50.191,5.034 L -48.142,6.354 L -46.899,8.450 L -46.725,10.881 L -38.971,15.354 L -38.971,-22.500 L -54.567,-31.504 L -77.942,-18.009 L -77.942,18.016 Z" fill="url(#g-trade)" fill-rule="nonzero" stroke="none"/>
<path d="M -2.165,63.750 L -2.165,43.955 L -38.971,22.455 L -54.560,31.500 L -54.560,58.500 L -23.816,76.250 L -2.165,63.750 Z" fill="url(#g-trade)" fill-rule="nonzero" stroke="none"/>
<path d="M 54.560,58.500 L 54.561,31.501 L 39.165,22.437 L 23.356,31.633 L 23.356,52.248 L 24.365,52.901 L 25.823,54.793 L 26.302,57.133 L 25.706,59.446 L 24.156,61.263 L 21.965,62.215 L 19.579,62.110 L 17.481,60.968 L 16.097,59.022 L 15.707,56.665 L 16.390,54.377 L 18.009,52.620 L 19.072,52.059 L 19.072,34.125 L 2.165,43.960 L 2.165,63.750 L 23.816,76.250 L 39.014,67.475 L 39.000,43.855 L 37.775,34.897 L 39.913,33.839 L 42.298,33.825 L 44.448,34.857 L 45.928,36.727 L 46.440,39.056 L 45.879,41.374 L 44.360,43.212 L 43.330,43.829 L 43.342,64.976 L 54.560,58.500 Z" fill="url(#g-trade)" fill-rule="nonzero" stroke="none"/>
<path d="M 2.165,1.250 L 14.538,-5.893 L 14.538,8.409 L 2.165,15.554 L 2.165,1.250 Z" fill="none" stroke="url(#g-trade)" stroke-width="1.5" stroke-linejoin="round" stroke-linecap="round"/>
<path d="M 0.000,-16.780 L 12.372,-9.643 L -0.007,-2.496 L -12.374,-9.636 L 0.000,-16.780 Z" fill="none" stroke="url(#g-trade)" stroke-width="1.5" stroke-linejoin="round" stroke-linecap="round"/>
<path d="M -2.165,15.554 L -14.538,8.393 L -14.538,-5.893 L -2.165,1.250 L -2.165,15.554 Z" fill="none" stroke="url(#g-trade)" stroke-width="1.5" stroke-linejoin="round" stroke-linecap="round"/>
<path d="M 0.000,21.787 L 18.868,10.893 L 18.868,-10.893 L 0.000,-21.787 L -18.868,-10.893 L -18.868,10.893 L 0.000,21.787 Z" fill="none" stroke="url(#g-trade)" stroke-width="1.5" stroke-linejoin="round" stroke-linecap="round"/>
<circle cx="0" cy="0" r="86.103" fill="none" stroke="url(#g-trade)" stroke-width="2.5"/>
<circle cx="0" cy="0" r="89.000" fill="none" stroke="url(#g-trade)" stroke-width="2.5"/>
</svg>
