<svg xmlns="http://www.w3.org/2000/svg" width="32" height="32" viewBox="0 0 384 384"><rect fill="#0a1628" width="384" height="384"/><path fill="#64748b" d="M 162.67 204.52 L 191.98 221.43 L 221.32 204.52 L 221.32 173.38 L 191.98 156.43 L 162.67 173.38 Z"/><path fill="#64748b" d="M 187.84 228.64 L 154.35 209.31 L 154.35 168.58 L 187.84 149.21 L 187.84 70.29 L 158.32 53.27 L 127.59 71.02 L 127.59 105.71 C 131.39 107.27 134.05 110.99 134.05 115.34 C 134.05 121.07 129.39 125.73 123.66 125.73 C 117.93 125.73 113.27 121.07 113.27 115.34 C 113.27 111.17 115.72 107.57 119.27 105.92 L 119.27 75.82 L 92.14 91.49 L 92.14 129.22 L 123.48 147.34 L 154.35 129.53 L 154.35 96.84 C 150.86 95.18 148.45 91.63 148.45 87.48 C 148.45 81.75 153.11 77.09 158.84 77.09 C 164.57 77.09 169.23 81.75 169.23 87.48 C 169.23 91.87 166.5 95.63 162.67 97.15 L 162.67 134.33 L 127.59 154.56 L 127.59 191.29 C 131.25 192.91 133.81 196.57 133.81 200.82 C 133.81 206.55 129.18 211.21 123.42 211.21 C 117.69 211.21 113.06 206.55 113.06 200.82 C 113.06 196.57 115.61 192.91 119.27 191.29 L 119.27 154.53 L 88.59 136.82 L 57.07 155.01 L 57.07 185.6 L 87.45 168.06 L 87.41 167.37 C 87.41 161.64 92.07 156.98 97.8 156.98 C 103.53 156.98 108.19 161.64 108.19 167.37 C 108.19 173.1 103.53 177.76 97.8 177.76 C 95.32 177.76 93.04 176.9 91.28 175.45 L 57.07 195.19 L 57.07 229.71 L 88.59 247.91 L 114.68 232.86 L 90.69 219.01 C 88.82 220.74 86.34 221.77 83.61 221.77 C 77.88 221.77 73.22 217.11 73.22 211.38 C 73.22 205.65 77.88 200.99 83.61 200.99 C 89.34 200.99 93.97 205.62 94 211.32 L 162.67 250.95 L 162.67 294.24 C 166.46 295.79 169.16 299.52 169.16 303.87 C 169.16 309.6 164.5 314.26 158.77 314.26 C 153.04 314.26 148.38 309.6 148.38 303.87 C 148.38 299.73 150.83 296.14 154.35 294.48 L 154.35 255.75 L 123 237.66 L 92.14 255.5 L 92.14 292.06 L 119.27 307.73 L 119.27 273.04 C 115.61 271.45 113.06 267.79 113.06 263.55 C 113.06 257.82 117.72 253.16 123.45 253.16 C 129.18 253.16 133.84 257.82 133.84 263.55 C 133.84 267.79 131.25 271.49 127.59 273.07 L 127.59 312.54 L 159.08 330.73 L 187.84 314.12 Z"/><path fill="#00d4ff" d="M 196.16 228.64 L 196.16 314.12 L 224.88 330.73 L 256.39 312.54 L 256.39 273.07 C 252.7 271.49 250.15 267.79 250.15 263.55 C 250.15 257.82 254.77 253.16 260.5 253.16 C 266.27 253.16 270.89 257.82 270.89 263.55 C 270.89 267.79 268.34 271.45 264.71 273.04 L 264.71 307.73 L 291.85 292.06 L 291.85 255.5 L 260.99 237.66 L 229.64 255.75 L 229.64 294.48 C 233.16 296.14 235.58 299.73 235.58 303.87 C 235.58 309.6 230.95 314.26 225.19 314.26 C 219.46 314.26 214.83 309.6 214.83 303.87 C 214.83 299.52 217.52 295.79 221.32 294.24 L 221.32 250.95 L 289.98 211.32 C 290.02 205.62 294.65 200.99 300.34 200.99 C 306.11 200.99 310.73 205.65 310.73 211.38 C 310.73 217.11 306.11 221.77 300.34 221.77 C 297.62 221.77 295.16 220.74 293.3 219.01 L 269.31 232.86 L 295.37 247.91 L 326.93 229.71 L 326.93 195.19 L 292.71 175.45 C 290.92 176.9 288.64 177.76 286.19 177.76 C 280.46 177.76 275.8 173.1 275.8 167.37 C 275.8 161.64 280.46 156.98 286.19 156.98 C 291.92 156.98 296.58 161.64 296.58 167.37 L 296.55 168.06 L 326.93 185.6 L 326.93 155.01 L 295.37 136.82 L 264.71 154.53 L 264.71 191.29 C 268.38 192.91 270.93 196.57 270.93 200.82 C 270.93 206.55 266.27 211.21 260.54 211.21 C 254.81 211.21 250.15 206.55 250.15 200.82 C 250.15 196.57 252.7 192.91 256.39 191.29 L 256.39 154.56 L 221.32 134.33 L 221.32 97.15 C 217.49 95.63 214.76 91.87 214.76 87.48 C 214.76 81.75 219.42 77.09 225.15 77.09 C 230.88 77.09 235.55 81.75 235.55 87.48 C 235.55 91.63 233.13 95.18 229.64 96.84 L 229.64 129.53 L 260.5 147.34 L 291.85 129.22 L 291.85 91.49 L 264.71 75.82 L 264.71 105.92 C 268.24 107.57 270.69 111.17 270.69 115.34 C 270.69 121.07 266.03 125.73 260.3 125.73 C 254.57 125.73 249.91 121.07 249.91 115.34 C 249.91 110.99 252.6 107.27 256.39 105.71 L 256.39 71.02 L 225.64 53.27 L 196.16 70.29 L 196.16 149.21 L 229.64 168.58 L 229.64 209.31 Z"/></svg>